<?xml version="1.0" encoding="utf-8"?>
<!-- Generator: Adobe Illustrator 24.3.0, SVG Export Plug-In . SVG Version: 6.00 Build 0)  -->
<svg version="1.0" id="Layer_1" xmlns="http://www.w3.org/2000/svg" xmlns:xlink="http://www.w3.org/1999/xlink" x="0px" y="0px"
	 viewBox="0 0 510.914 518.892" enable-background="new 0 0 510.914 518.892" xml:space="preserve">
<g>
	<path fill="none" stroke="#FFFFFF" stroke-width="20" stroke-linecap="round" stroke-linejoin="round" stroke-miterlimit="10" d="
		M206.662-254.699c-3.967-6.612-15.207-15.207-15.076-26.767s8.464-72.411,4.497-84.312c-3.967-11.901-11.24-22.48-11.24-22.48
		l8.849-36.985l11.85-4.182l-8.649-10.334l0.194-0.357l-1.605-1.329l-31.081-5.571l-7.636,0.305l-52.842-21.992L54.747-502.38
		l-12.696-8.408l-0.618-0.409l-15.66-18.587l-8.783-27.662l-3.58-11.276l-3.582,3.432l-1.024,4.778l-1.025,4.784l-0.139,0.906
		l-10.107,66.03l-2.732,17.076l-5.464,32.102l-5.515,33.643l-1.304,7.952c-0.52-0.444-68.14,6.643-68.779,6.829
		c-25.444,7.409-37.93,12.719-48.784,23.554l-18.219,18.186c-6.314,6.302-9.503,14.586-9.579,22.893
		c0.001-0.097-0.004-0.195-0.002-0.292v0.37c-0.001,0.15-0.001,0.3,0,0.45l-0.001,52.82c0,0.108,0,0.217,0,0.325v0.342
		c0.003,0.184,0.015,0.368,0.021,0.553c0.008,0.251,0.015,0.501,0.029,0.752c0.015,0.269,0.036,0.538,0.057,0.807
		c0.02,0.25,0.039,0.501,0.064,0.751c0.027,0.269,0.062,0.538,0.096,0.806c0.031,0.248,0.062,0.496,0.098,0.743
		c0.04,0.269,0.088,0.537,0.135,0.804c0.043,0.247,0.084,0.493,0.133,0.739c0.053,0.267,0.114,0.532,0.174,0.798
		c0.055,0.244,0.107,0.488,0.168,0.731c0.066,0.267,0.141,0.532,0.214,0.797c0.066,0.239,0.129,0.479,0.201,0.717
		c0.079,0.264,0.168,0.526,0.254,0.789c0.078,0.237,0.152,0.474,0.235,0.709c0.093,0.261,0.194,0.52,0.293,0.78
		c0.089,0.232,0.174,0.466,0.269,0.696c0.106,0.26,0.222,0.516,0.335,0.774c0.1,0.227,0.195,0.454,0.3,0.679
		c0.015,0.032,0.028,0.066,0.044,0.099c-3.223,10.449-5.51,27.389-2.773,54.201c0,0-39.938,49.269-34.064,64.733l-19.969,9.029
		l1.175,15.034l30.541,5.508c0,0,65.492,94.04,252.405,52.553l43.088,3.578l10.344-16.702l-24.324,5.814
		c0.329-0.092,0.655-0.18,0.985-0.272l23.34-5.541l0,0h0l0,0l0,0L109.901-90.24L94.2-96.966l0,0l-3.118-19.026
		c7.224,2.769,14.866,5.368,22.92,7.713c0,0,23.137-2.858,35.546-7.753l12.929-7.485l1.98-2.036l0.032-0.097
		c-0.019,0.058-0.032,0.097-0.032,0.097c26.559-4.414,56.089-51.125,56.089-51.125C224.514-204.449,210.629-248.087,206.662-254.699
		z M162.324-285.833L162.324-285.833L162.324-285.833L162.324-285.833z M-162.819-324.96c-0.01-0.256-0.014-0.511-0.018-0.767
		C-162.833-325.472-162.829-325.216-162.819-324.96z M-154.438-304.291c-0.125-0.139-0.241-0.283-0.364-0.424
		C-154.679-304.574-154.563-304.43-154.438-304.291z M-155.535-305.571c-0.141-0.173-0.272-0.352-0.409-0.528
		C-155.807-305.923-155.676-305.744-155.535-305.571z M-156.556-306.894c-0.14-0.191-0.269-0.387-0.404-0.58
		C-156.825-307.281-156.696-307.085-156.556-306.894z M-157.499-308.255c-0.135-0.206-0.261-0.417-0.391-0.626
		C-157.76-308.673-157.634-308.461-157.499-308.255z M-158.366-309.654c-0.126-0.215-0.242-0.435-0.363-0.652
		C-158.608-310.088-158.492-309.869-158.366-309.654z M-159.157-311.086c-0.116-0.223-0.222-0.449-0.332-0.674
		C-159.379-311.535-159.272-311.308-159.157-311.086z M-159.871-312.548c-0.105-0.229-0.201-0.461-0.3-0.692
		C-160.071-313.009-159.976-312.777-159.871-312.548z M-160.508-314.037c-0.094-0.235-0.179-0.473-0.267-0.709
		C-160.686-314.51-160.601-314.272-160.508-314.037z M-161.068-315.55c-0.083-0.24-0.156-0.483-0.233-0.725
		C-161.224-316.033-161.15-315.791-161.068-315.55z M-161.551-317.084c-0.071-0.244-0.133-0.49-0.198-0.736
		C-161.685-317.574-161.622-317.328-161.551-317.084z M-161.958-318.636c-0.059-0.247-0.11-0.496-0.162-0.744
		C-162.068-319.132-162.017-318.884-161.958-318.636z M-162.289-320.203c-0.047-0.25-0.086-0.502-0.127-0.753
		C-162.375-320.705-162.335-320.454-162.289-320.203z M-162.542-321.781c-0.034-0.253-0.062-0.506-0.091-0.759
		C-162.604-322.287-162.577-322.034-162.542-321.781z M-162.719-323.368c-0.022-0.255-0.038-0.51-0.055-0.765
		C-162.757-323.878-162.741-323.623-162.719-323.368z"/>
	
		<radialGradient id="SVGID_1_" cx="636.7812" cy="-862.4619" r="87.5172" gradientTransform="matrix(1.7381 0 0 0.8621 -1105.7416 664.837)" gradientUnits="userSpaceOnUse">
		<stop  offset="0" style="stop-color:#C2C2C2"/>
		<stop  offset="0.2597" style="stop-color:#C6C6C6;stop-opacity:0.7403"/>
		<stop  offset="0.5126" style="stop-color:#D1D1D1;stop-opacity:0.4874"/>
		<stop  offset="0.762" style="stop-color:#E5E5E5;stop-opacity:0.238"/>
		<stop  offset="1" style="stop-color:#FFFFFF;stop-opacity:0"/>
	</radialGradient>
	<ellipse fill="url(#SVGID_1_)" cx="1.059" cy="-78.698" rx="152.044" ry="74.29"/>
	<path fill="#AB8958" d="M206.662-254.699c-3.967-6.612-15.207-15.207-15.076-26.767s8.464-72.411,4.497-84.312
		c-3.967-11.901-11.24-22.48-11.24-22.48l8.849-36.985l11.85-4.182l-8.649-10.334l0.194-0.357l-1.604-1.328h0l0,0l0,0l-17.312,2.696
		l-4.534,17.692l-37.152,38.987l-41.166,54.008l-2.391,25.216l-37.265,17.41l-23.519,1.527l-12.829-7.942L3.432-304.069
		l-12.218-17.105l-6.415-32.988l-0.978-51.809l-8.145,49.686l-2.732,56.691l2.049,43.713c5.927,48.624,26.638,84.011,26.638,84.011
		s39.182,42.284,112.372,63.591c0,0,23.137-2.858,35.546-7.753l12.929-7.485l1.98-2.036l0.032-0.097
		c-0.019,0.058-0.032,0.097-0.032,0.097c26.56-4.414,56.089-51.126,56.089-51.126C224.514-204.449,210.629-248.087,206.662-254.699z
		"/>
	<polygon fill="#D5C4AB" points="164.401,-447.018 156.765,-446.712 103.923,-468.704 54.746,-502.38 42.05,-510.788 
		41.432,-511.197 25.773,-529.784 16.99,-557.445 13.41,-568.721 9.828,-565.29 8.804,-560.511 7.779,-555.727 7.64,-554.821 
		-2.467,-488.791 -5.199,-471.716 -10.663,-439.614 -16.178,-405.971 -15.2,-354.162 -8.786,-321.174 3.432,-304.069 
		19.315,-291.852 32.144,-283.91 55.663,-285.437 92.927,-302.848 95.319,-328.064 136.484,-382.072 173.637,-421.059 
		178.17,-438.751 195.482,-441.447 	"/>
	<path fill="none" stroke="#FFFFFF" stroke-width="5" stroke-miterlimit="10" d="M109.901-90.24L94.2-96.966L77.055-201.593
		c0,0-7.367-29.461-17.678-48.601c6.041-6.207,9.13-14.256,9.252-22.347l-0.001-41.203l-9.581,24.265v38.675
		c-2.959-5.396-6.154-9.918-9.482-12.642H30.322c15.12,12.371,27.49,61.853,27.49,61.853L78.859-89.888l27.587,12.027l14.576,6.777
		L109.901-90.24z"/>
	<path fill="none" stroke="#FFFFFF" stroke-width="5" stroke-miterlimit="10" d="M59.047-303.056
		c12.782-12.758,12.782-33.635,0-46.394l-18.219-18.186c-12.782-12.758-38.016-23.197-56.075-23.197H-78.97
		c-18.06,0-43.293,10.439-56.075,23.197l-18.219,18.186c-12.781,12.758-12.781,33.635,0,46.394l18.219,18.186
		c12.781,12.758,38.015,23.197,56.075,23.197h63.724c18.059,0,43.293-10.438,56.075-23.197L59.047-303.056z"/>
	<path fill="#D5C4AB" d="M-151.112-274.441c0,0-17.258,12.094-11.384,69.624c0,0-39.938,49.269-34.065,64.733l-19.969,9.029
		l1.175,15.034l30.541,5.507c0,0,72.462,104.064,282.498,44.97l23.34-5.541L109.901-90.24l-6.542-1.354L94.2-96.966L77.055-201.593
		c0,0-12.371-49.482-27.49-61.853L-151.112-274.441"/>
	<polygon fill="#AB8958" points="110.679,-54.382 121.022,-71.084 66.493,-58.051 	"/>
	<polygon fill="#DADADA" points="121.023,-71.084 121.022,-71.084 121.023,-71.084 	"/>
	<path fill="#DADADA" d="M109.901-90.24L94.2-96.966L77.055-201.593c0,0-12.371-49.482-27.49-61.853H30.322
		c15.12,12.371,27.49,61.853,27.49,61.853L78.86-89.888l27.587,12.027l14.576,6.777l0,0L109.901-90.24z"/>
	<path fill="#ECECEC" d="M40.828-314.428c-12.782-12.758-38.015-23.197-56.075-23.197H-78.97c-18.059,0-43.293,10.439-56.075,23.197
		l-18.219,18.186c-12.782,12.758-12.782,33.636,0,46.394l18.219,18.186c12.782,12.758,38.015,23.197,56.075,23.197h63.724
		c18.059,0,43.293-10.439,56.075-23.197l18.219-18.186c12.782-12.758,12.782-33.636,0-46.394L40.828-314.428z"/>
	<path fill="#D5C4AB" d="M40.828-367.636c-12.782-12.758-38.015-23.197-56.075-23.197H-78.97c-18.059,0-43.293,10.439-56.075,23.197
		l-18.219,18.186c-12.782,12.758-12.782,33.636,0,46.394l18.219,18.186c12.782,12.758,38.015,23.197,56.075,23.197h63.724
		c18.059,0,43.293-10.439,56.075-23.197l18.219-18.186c12.782-12.758,12.782-33.636,0-46.394L40.828-367.636z"/>
	<path fill="#D5C4AB" d="M-162.845-326.848c-0.154,8.606,3.039,17.263,9.581,23.793v53.208c-6.263-6.252-9.457-14.453-9.582-22.693"
		/>
	<path fill="#D5C4AB" d="M-153.264-303.056l18.219,18.186v53.208l-18.219-18.186"/>
	<path fill="#AB8958" d="M59.047-303.056L40.828-284.87v53.208l18.219-18.186"/>
	<path fill="#D5C4AB" d="M-78.97-261.673c-18.059,0-43.293-10.439-56.075-23.197v53.208c12.782,12.758,38.015,23.197,56.075,23.197"
		/>
	<path fill="#AB8958" d="M-15.246-261.673H-78.97v53.208h63.724"/>
	<path fill="#AB8958" d="M40.828-284.87c-12.782,12.758-38.015,23.197-56.075,23.197v53.208c18.059,0,43.293-10.439,56.075-23.197"
		/>
	<path fill="#AB8958" d="M-131.599-121.402l-1.626,2.232c-0.701-0.764-1.409-1.309-2.126-1.632
		c-0.716-0.324-1.417-0.452-2.102-0.386c-0.685,0.068-1.359,0.3-2.019,0.699c-0.662,0.397-1.301,0.934-1.918,1.605
		c-0.269,0.294-0.547,0.64-0.834,1.038c-0.287,0.399-0.514,0.832-0.679,1.301c-0.165,0.469-0.228,0.962-0.188,1.479
		c0.04,0.519,0.253,1.043,0.639,1.574c0.331,0.456,0.707,0.716,1.129,0.784c0.422,0.068,0.882,0.006,1.383-0.184
		c0.5-0.188,1.034-0.471,1.6-0.852c0.567-0.378,1.153-0.788,1.759-1.23c0.607-0.44,1.244-0.871,1.912-1.294
		c0.668-0.421,1.346-0.787,2.035-1.097c1.325-0.561,2.601-0.66,3.827-0.297c1.226,0.362,2.432,1.36,3.618,2.99
		c0.814,1.118,1.389,2.257,1.727,3.418c0.338,1.161,0.46,2.304,0.363,3.429c-0.097,1.125-0.39,2.219-0.881,3.281
		c-0.492,1.061-1.153,2.046-1.985,2.954c-0.994,1.084-1.899,1.831-2.716,2.247c-0.817,0.416-1.571,0.693-2.262,0.836
		c-0.488,0.091-0.853,0.266-1.095,0.531c-0.188,0.205-0.266,0.51-0.234,0.919c0.031,0.407,0.117,0.823,0.258,1.248l-1.832,1.998
		l-5.46-7.51l1.688-2.146c1.321,1.551,2.744,2.268,4.271,2.15c1.527-0.116,3.042-0.996,4.545-2.635
		c0.416-0.454,0.787-0.928,1.115-1.42c0.327-0.494,0.56-1.001,0.697-1.524s0.152-1.066,0.044-1.628
		c-0.108-0.562-0.382-1.146-0.824-1.754c-0.469-0.644-1.005-0.934-1.609-0.872c-0.603,0.064-1.263,0.307-1.978,0.73
		c-0.715,0.423-1.477,0.956-2.285,1.599c-0.808,0.644-1.657,1.214-2.548,1.709c-1.769,1.01-3.354,1.354-4.757,1.03
		s-2.799-1.443-4.192-3.357c-0.579-0.796-1.037-1.658-1.372-2.582c-0.337-0.926-0.496-1.89-0.479-2.894
		c0.016-1.004,0.226-2.022,0.629-3.058c0.404-1.033,1.061-2.049,1.974-3.044c0.966-1.054,1.848-1.794,2.645-2.221
		c0.797-0.427,1.514-0.716,2.151-0.867c0.23-0.047,0.423-0.104,0.578-0.171c0.156-0.068,0.294-0.167,0.414-0.299
		c0.282-0.308,0.428-0.628,0.438-0.962c0.01-0.334-0.042-0.761-0.156-1.282l1.55-1.69L-131.599-121.402z"/>
	<path fill="#AB8958" d="M-109.505-142.457c-1.626,1.026-2.176,1.954-1.651,2.785l5.336,8.454c0.843,1.337,1.466,2.625,1.868,3.861
		c0.402,1.238,0.515,2.429,0.342,3.574c-0.174,1.145-0.666,2.257-1.475,3.336c-0.81,1.079-2.009,2.121-3.599,3.123
		c-1.626,1.026-3.135,1.696-4.53,2.007c-1.395,0.313-2.677,0.321-3.85,0.024c-1.172-0.297-2.257-0.874-3.255-1.735
		c-0.998-0.861-1.919-1.959-2.762-3.296l-5.336-8.454c-0.524-0.831-1.591-0.739-3.199,0.276l-1.402-2.222l10.757-6.788l1.402,2.221
		c-1.03,0.651-1.695,1.217-1.998,1.698c-0.302,0.481-0.322,0.93-0.06,1.345l5.336,8.454c0.628,0.994,1.234,1.804,1.82,2.432
		c0.586,0.628,1.184,1.065,1.794,1.311c0.61,0.247,1.263,0.301,1.96,0.165c0.697-0.138,1.469-0.473,2.319-1.01
		c0.849-0.535,1.498-1.097,1.949-1.683c0.45-0.588,0.713-1.222,0.79-1.902c0.076-0.678-0.034-1.424-0.331-2.235
		c-0.297-0.81-0.758-1.712-1.385-2.706l-5.336-8.453c-0.262-0.417-0.681-0.588-1.255-0.516c-0.573,0.072-1.375,0.431-2.405,1.082
		l-1.402-2.222l8.156-5.148L-109.505-142.457z"/>
	<path fill="#AB8958" d="M-85.109-150.801l-2.647,1.884c-1.118-1.275-2.342-2.063-3.668-2.363c-1.327-0.3-2.69-0.038-4.091,0.782
		c-2.065,1.209-3.139,2.754-3.225,4.637c-0.086,1.882,0.595,4.058,2.042,6.529c0.918,1.566,1.795,2.767,2.63,3.603
		c0.836,0.835,1.659,1.385,2.472,1.651c0.812,0.268,1.619,0.303,2.419,0.106s1.616-0.539,2.446-1.025
		c0.608-0.356,1.143-0.763,1.606-1.22c0.462-0.455,0.833-0.933,1.111-1.43c0.278-0.497,0.436-0.999,0.475-1.504
		c0.038-0.505-0.078-0.988-0.348-1.449l-0.777-1.326c-0.497-0.848-1.575-0.786-3.234,0.186l-1.328-2.267l9.096-5.329l1.328,2.267
		c-1.659,0.972-2.24,1.882-1.744,2.729l4.098,6.995l-3.429,2.009l-1.584-1.374c-0.052,0.377-0.182,0.8-0.39,1.268
		c-0.208,0.468-0.515,0.957-0.922,1.469c-0.406,0.51-0.918,1.033-1.533,1.566c-0.616,0.534-1.348,1.049-2.196,1.546
		c-1.216,0.713-2.513,1.225-3.89,1.538c-1.376,0.311-2.767,0.314-4.171,0.011c-1.404-0.305-2.784-0.981-4.141-2.031
		c-1.357-1.049-2.619-2.568-3.785-4.558c-1.112-1.898-1.791-3.68-2.035-5.344c-0.244-1.664-0.16-3.199,0.254-4.606
		c0.414-1.406,1.111-2.668,2.09-3.785c0.979-1.119,2.132-2.067,3.459-2.844c1.437-0.842,2.762-1.39,3.976-1.643
		c1.214-0.252,2.277-0.274,3.191-0.067l-0.218-1.767l2.71-1.587L-85.109-150.801z"/>
	<path fill="#AB8958" d="M-53.505-153.772c0.489,0.465,1.403,0.343,2.744-0.367l1.23,2.323l-11.354,6.014l-1.23-2.322l2.18-1.154
		c0.548-0.29,0.731-0.604,0.552-0.944c-0.04-0.075-0.128-0.173-0.265-0.295l-1.993-1.845l-7.644,4.05l0.372,2.415
		c0.024,0.181,0.06,0.319,0.111,0.412c0.25,0.473,0.799,0.484,1.649,0.034l1.614-0.855l1.23,2.322l-8.012,4.244l-1.259-2.306
		c0.811-0.43,1.364-0.814,1.657-1.15c0.293-0.337,0.417-0.662,0.371-0.976l-3.138-21.255l5.72-3.03L-53.505-153.772z
		 M-69.785-151.238l6.087-3.226l-7.834-7.67L-69.785-151.238z"/>
	<path fill="#AB8958" d="M-25.077-167.587c0.255,0.564,0.406,1.134,0.454,1.704c0.047,0.572-0.028,1.117-0.228,1.637
		s-0.54,1.008-1.023,1.47c-0.483,0.462-1.124,0.872-1.922,1.233c-0.935,0.422-1.78,0.664-2.538,0.725
		c-0.758,0.061-1.433-0.021-2.027-0.245c-0.594-0.224-1.111-0.564-1.552-1.021c-0.441-0.457-0.802-0.997-1.083-1.621l-0.858-1.898
		c-0.342-0.758-0.672-1.371-0.988-1.837c-0.316-0.467-0.649-0.803-1-1.008c-0.351-0.204-0.732-0.297-1.144-0.274
		c-0.412,0.022-0.891,0.156-1.436,0.402l-3.387,1.53l2.901,6.424c0.405,0.896,1.687,0.856,3.849-0.12l1.081,2.394l-11.768,5.317
		l-1.069-2.366c1.732-0.782,2.396-1.623,1.991-2.519l-6.435-14.245c-0.405-0.898-1.474-0.954-3.207-0.172l-1.081-2.395l13.871-6.266
		c0.953-0.43,1.917-0.789,2.889-1.076c0.972-0.287,1.901-0.396,2.787-0.327c0.887,0.069,1.704,0.361,2.454,0.879
		c0.749,0.516,1.388,1.36,1.915,2.527c0.343,0.76,0.527,1.48,0.553,2.16c0.026,0.68-0.059,1.31-0.254,1.889
		c-0.195,0.58-0.479,1.108-0.851,1.581c-0.373,0.473-0.795,0.887-1.268,1.241c0.596-0.082,1.154-0.08,1.672,0.003
		c0.518,0.083,1.01,0.266,1.478,0.548c0.467,0.284,0.909,0.689,1.324,1.219c0.415,0.531,0.804,1.196,1.166,1.996l1.059,2.344
		c0.194,0.43,0.425,0.709,0.693,0.834c0.268,0.127,0.538,0.128,0.81,0.005c0.292-0.133,0.479-0.34,0.562-0.624
		c0.083-0.284,0.028-0.64-0.165-1.068l-0.633-1.401l1.84-0.831L-25.077-167.587z M-47.607-175.201l2.691,5.956l3.737-1.688
		c1.09-0.492,1.776-1.089,2.057-1.789c0.281-0.702,0.149-1.656-0.396-2.863c-0.405-0.895-0.954-1.461-1.647-1.699
		c-0.693-0.237-1.594-0.106-2.704,0.396L-47.607-175.201z"/>
	<path fill="#FFFFFF" d="M-19.039-399.322c-36.295-29.264-67.222,8.133-67.222,8.133s-60.928,48.698-63.227,56.17
		c-2.299,7.472,0.575,16.094,0.575,16.094c12.219,21.18,68.286,45.118,68.286,45.118l65.641-0.859
		c5.443,0,10.845-0.983,16.093-2.641l-39.433-110.905C-38.326-388.213-23.987-388.173-19.039-399.322z"/>
	<path fill="#DADADA" d="M59.047-289.479v39.631c6.263-6.252,9.457-14.453,9.582-22.693l-0.001-41.203L59.047-289.479z"/>
	<path fill="#AB8958" d="M109.901-90.24L94.2-96.966L77.055-201.593c0,0-12.371-49.482-27.49-61.853H30.322
		c15.12,12.371,27.49,61.853,27.49,61.853L78.86-89.888l27.587,12.027l14.576,6.777l0,0L109.901-90.24z"/>
	<path fill="#AB8958" d="M59.047-289.479v39.631c6.263-6.252,9.457-14.453,9.582-22.693l-0.001-41.203L59.047-289.479z"/>
	<path fill="#FFFFFF" d="M54.563-316.626c6.323-8.622,1.149-21.842,1.149-21.842l-66.676-53.296
		c-2.715-2.911-5.409-5.408-8.076-7.558c-4.948,11.15-19.288,11.11-19.288,11.11L1.107-277.308
		C30.218-286.509,54.563-316.626,54.563-316.626z"/>
	<path fill="#AB8958" d="M68.628-326.848c0.155,8.606-3.039,17.263-9.581,23.792v13.577l9.581-24.265L68.628-326.848z"/>
</g>
</svg>
