<?xml version="1.0" encoding="utf-8"?>
<!-- Generator: Adobe Illustrator 24.3.0, SVG Export Plug-In . SVG Version: 6.00 Build 0)  -->
<svg version="1.0" id="Layer_1" xmlns="http://www.w3.org/2000/svg" xmlns:xlink="http://www.w3.org/1999/xlink" x="0px" y="0px"
	 viewBox="0 0 151.228 521.335" enable-background="new 0 0 151.228 521.335" xml:space="preserve">
<g>
	<g>
		<g>
			<ellipse opacity="0" fill="#333333" cx="75.759" cy="-47.692" rx="72.459" ry="42.692"/>
			<ellipse opacity="0.0057" fill="#333333" cx="75.759" cy="-47.692" rx="71.116" ry="41.901"/>
			<ellipse opacity="0.0114" fill="#333333" cx="75.759" cy="-47.692" rx="69.774" ry="41.11"/>
			<ellipse opacity="0.0171" fill="#333333" cx="75.759" cy="-47.692" rx="68.432" ry="40.32"/>
			<ellipse opacity="0.0229" fill="#333333" cx="75.759" cy="-47.692" rx="67.089" ry="39.529"/>
			<ellipse opacity="0.0286" fill="#333333" cx="75.759" cy="-47.692" rx="65.747" ry="38.738"/>
			<ellipse opacity="0.0343" fill="#333333" cx="75.759" cy="-47.692" rx="64.405" ry="37.947"/>
			<ellipse opacity="0.04" fill="#333333" cx="75.759" cy="-47.692" rx="63.062" ry="37.156"/>
			<ellipse opacity="0.0457" fill="#333333" cx="75.759" cy="-47.692" rx="61.72" ry="36.365"/>
			<ellipse opacity="0.0514" fill="#333333" cx="75.759" cy="-47.692" rx="60.378" ry="35.574"/>
			<ellipse opacity="0.0571" fill="#333333" cx="75.759" cy="-47.692" rx="59.035" ry="34.783"/>
			<ellipse opacity="0.0629" fill="#333333" cx="75.759" cy="-47.692" rx="57.693" ry="33.992"/>
			<ellipse opacity="0.0686" fill="#333333" cx="75.759" cy="-47.692" rx="56.351" ry="33.202"/>
			<ellipse opacity="0.0743" fill="#333333" cx="75.759" cy="-47.692" rx="55.008" ry="32.411"/>
			<ellipse opacity="0.08" fill="#333333" cx="75.759" cy="-47.692" rx="53.666" ry="31.62"/>
			<ellipse opacity="0.0857" fill="#333333" cx="75.759" cy="-47.692" rx="52.324" ry="30.829"/>
			<ellipse opacity="0.0914" fill="#333333" cx="75.759" cy="-47.692" rx="50.981" ry="30.038"/>
			<ellipse opacity="0.0971" fill="#333333" cx="75.759" cy="-47.692" rx="49.639" ry="29.247"/>
			<ellipse opacity="0.1029" fill="#333333" cx="75.759" cy="-47.692" rx="48.297" ry="28.456"/>
			<ellipse opacity="0.1086" fill="#333333" cx="75.759" cy="-47.692" rx="46.954" ry="27.665"/>
			<ellipse opacity="0.1143" fill="#333333" cx="75.759" cy="-47.692" rx="45.612" ry="26.874"/>
			<ellipse opacity="0.12" fill="#333333" cx="75.759" cy="-47.692" rx="44.27" ry="26.084"/>
		</g>
		<path fill="#E6F5FF" d="M105.872-450.554v7.484l37.198,78.799c0,0,7.924,21.13,7.924,44.682l-0.66,211.965
			c0,0-2.421,64.932-74.837,64.932S0.66-107.624,0.66-107.624L0-319.589c0-23.552,7.924-44.682,7.924-44.682l37.198-78.799v-7.484"
			/>
		<path fill="#B3B3B4" d="M102.431-445.659v18.089l29.35,68.672c0,0,7.775,19.064,7.775,36.394l-0.486,211.215
			c0,0-0.875,57.19-63.558,58.815c-62.684-1.625-63.558-58.815-63.558-58.815l-0.486-211.215c0-17.33,7.775-36.394,7.775-36.394
			l29.35-68.672v-18.089"/>
		<path fill="#FFFFFF" d="M32.663-335.724c-0.362,0-0.729-0.04-1.097-0.122c-2.694-0.603-4.391-3.276-3.787-5.971
			c2.359-10.549,5.634-18.631,5.771-18.97l24.386-57.06l2.238-12.963c0.47-2.721,3.047-4.547,5.777-4.077
			c2.721,0.47,4.546,3.057,4.076,5.778l-2.337,13.539c-0.065,0.383-0.177,0.757-0.329,1.114l-24.584,57.521l0,0
			c0.001,0-3.073,7.61-5.241,17.3C37.016-337.306,34.952-335.724,32.663-335.724z"/>
		<path fill="#FFFFFF" d="M30.406-317.504c-2.762,0-5-2.239-5-5c0-2.19,0.116-4.507,0.344-6.886c0.265-2.749,2.72-4.765,5.455-4.5
			c2.749,0.264,4.764,2.706,4.5,5.455c-0.198,2.063-0.299,4.059-0.299,5.931C35.406-319.743,33.167-317.504,30.406-317.504z"/>
		<ellipse fill="#FF4E36" cx="75.759" cy="-498.718" rx="38.386" ry="22.617"/>
		<g>
			<path fill="#FF1921" d="M75.759-249.915c-41.68,0-75.468-19.908-75.468-44.466v155.224c0,24.558,33.788,44.466,75.468,44.466
				c17.675,0,33.928-3.581,46.79-9.577v-155.224C109.688-253.495,93.434-249.915,75.759-249.915z"/>
			<path fill="#CC0A11" d="M151.228-139.156V-294.38c0,14.144-11.21,26.744-28.678,34.888v155.224
				C140.018-112.412,151.228-125.012,151.228-139.156z"/>
		</g>
	</g>
	<g>
		<path fill="#E6F5FF" d="M105.872-450.554v7.484l37.198,78.799c0,0,7.924,21.13,7.924,44.682l-0.66,211.965
			c0,0-2.421,64.932-74.837,64.932S0.66-107.624,0.66-107.624L0-319.589c0-23.552,7.924-44.682,7.924-44.682l37.198-78.799v-7.484"
			/>
		<path fill="#EFEFEF" d="M102.431-445.659v18.089l29.35,68.672c0,0,7.775,19.064,7.775,36.394l-0.486,211.215
			c0,0-0.875,57.19-63.558,58.815c-62.684-1.625-63.558-58.815-63.558-58.815l-0.486-211.215c0-17.33,7.775-36.394,7.775-36.394
			l29.35-68.672v-18.089"/>
		<path fill="#FFFFFF" d="M32.663-335.724c-0.362,0-0.729-0.04-1.097-0.122c-2.694-0.603-4.391-3.276-3.787-5.971
			c2.359-10.549,5.634-18.631,5.771-18.97l24.386-57.06l2.238-12.963c0.47-2.721,3.047-4.547,5.777-4.077
			c2.721,0.47,4.546,3.057,4.076,5.778l-2.337,13.539c-0.065,0.383-0.177,0.757-0.329,1.114l-24.584,57.521l0,0
			c0.001,0-3.073,7.61-5.241,17.3C37.016-337.306,34.952-335.724,32.663-335.724z"/>
		<path fill="#FFFFFF" d="M30.406-317.504c-2.762,0-5-2.239-5-5c0-2.19,0.116-4.507,0.344-6.886c0.265-2.749,2.72-4.765,5.455-4.5
			c2.749,0.264,4.764,2.706,4.5,5.455c-0.198,2.063-0.299,4.059-0.299,5.931C35.406-319.743,33.167-317.504,30.406-317.504z"/>
		<ellipse fill="#CC0A11" cx="75.759" cy="-461.505" rx="38.386" ry="22.617"/>
		<g>
			<path fill="#FF1921" d="M75.759-476.101c-21.2,0-38.386-10.126-38.386-22.617v32.591c0,12.491,17.186,22.617,38.386,22.617
				c8.656,0,16.641-1.689,23.062-4.537v-32.591C92.4-477.791,84.415-476.101,75.759-476.101z"/>
			<path fill="#CC0A11" d="M114.145-466.127v-32.591c0,7.391-6.019,13.953-15.324,18.08v32.591
				C108.126-452.174,114.145-458.736,114.145-466.127z"/>
		</g>
		<ellipse fill="#FF4E36" cx="75.759" cy="-498.718" rx="38.386" ry="22.617"/>
		<g>
			<path fill="#FF1921" d="M75.759-249.915c-41.68,0-75.468-19.908-75.468-44.466v155.224c0,24.558,33.788,44.466,75.468,44.466
				c17.675,0,33.928-3.581,46.79-9.577v-155.224C109.688-253.495,93.434-249.915,75.759-249.915z"/>
			<path fill="#CC0A11" d="M151.228-139.156V-294.38c0,14.144-11.21,26.744-28.678,34.888v155.224
				C140.018-112.412,151.228-125.012,151.228-139.156z"/>
		</g>
	</g>
</g>
</svg>
